<svg width="100" height="100" viewBox="0 0 100 100" fill="none" xmlns="http://www.w3.org/2000/svg">
<path d="M11.7339 94.9152C9.11526 94.9152 6.64915 91.0966 6.64915 88.1356C6.64915 87.2 5.88983 86.4407 4.95424 86.4407C4.01865 86.4407 3.25932 87.2 3.25932 88.1356C3.25932 92.8373 6.96102 98.3051 11.7339 98.3051C12.6695 98.3051 13.4288 97.5458 13.4288 96.6102C13.4288 95.6746 12.6695 94.9152 11.7339 94.9152Z" fill="black"/>
<path d="M87.2746 3.38983C89.8136 3.38983 93.0881 7.14576 93.0881 11.1356C93.0881 12.0712 93.8475 12.8305 94.7831 12.8305C95.7186 12.8305 96.478 12.0712 96.478 11.1356C96.478 5.51695 91.9186 0 87.2746 0C86.339 0 85.5797 0.759322 85.5797 1.69492C85.5797 2.63051 86.339 3.38983 87.2746 3.38983Z" fill="black"/>
<path d="M98.1746 76.2712C98.1746 75.3356 97.4153 74.5763 96.4797 74.5763C95.5441 74.5763 94.7847 75.3356 94.7847 76.2712C94.7847 85.1407 87.5136 93.2204 79.5305 93.2204C78.5949 93.2204 77.8356 93.9797 77.8356 94.9153C77.8356 95.8509 78.5949 96.6102 79.5305 96.6102C89.461 96.6102 98.1746 87.1068 98.1746 76.2712Z" fill="black"/>
<path d="M98.1746 89.8306C97.239 89.8306 96.4797 90.5899 96.4797 91.5255C96.4797 93.4865 94.1525 96.6102 91.3949 96.6102C90.4593 96.6102 89.7 97.3695 89.7 98.3051C89.7 99.2407 90.4593 100 91.3949 100C95.9593 100 99.8695 95.339 99.8695 91.5255C99.8695 90.5899 99.1102 89.8306 98.1746 89.8306Z" fill="black"/>
<path d="M64.6966 96.8492C67.4407 95.8237 70.1136 94.5475 72.6915 93.0576C72.9034 92.9865 73.1 92.8746 73.2746 92.7187C77.1746 90.4 80.8424 87.5763 84.1424 84.2763C89.4203 78.9983 93.3797 72.9492 96.0051 66.6051C96.0373 66.539 96.0661 66.478 96.0898 66.4102C97.6305 62.6441 98.6983 58.7746 99.2898 54.9017C99.3068 54.7949 99.3356 54.6932 99.3322 54.5865C99.9 50.6865 99.9814 46.7898 99.5746 42.9865C99.5814 42.8576 99.5576 42.7356 99.5339 42.6085C98.5068 33.7424 94.8085 25.4322 88.3356 18.9593C87.1695 17.7915 85.9068 16.7034 84.5051 15.6322C83.4797 14.2865 82.3661 12.9915 81.1441 11.7695C73.7119 4.33222 63.478 0.237305 52.3288 0.237305C39.1271 0.237305 25.8237 5.96781 15.8305 15.961C-3.3339 35.1271 -5.21525 64.4271 11.6356 81.2797C12.822 82.4661 14.1034 83.5356 15.4237 84.5475C16.5186 85.9882 17.6322 87.2763 18.8254 88.4695C26.2627 95.9051 36.4966 100 47.6458 100C53.3576 100 59.0881 98.9221 64.561 96.8966C64.6085 96.8797 64.6525 96.8695 64.6966 96.8492ZM52.9864 96.2644L48.7695 92.0475C51.3339 91.5882 53.8729 90.9204 56.3661 90.0543L60.8763 94.5644C58.2831 95.3644 55.6441 95.9339 52.9864 96.2644ZM96.3407 50.9288L92.2288 46.817C92.2712 46.5017 92.3136 46.1882 92.3509 45.8729C92.4424 45.061 92.5136 44.2492 92.5627 43.439C92.5915 42.9729 92.6051 42.5102 92.6187 42.0458C92.6339 41.5763 92.6407 41.1085 92.6424 40.6407C92.6424 40.4441 92.6542 40.2458 92.6525 40.0492L96.2559 43.6526C96.4932 46.0458 96.5203 48.4797 96.3407 50.9288ZM93.8186 62.7882L89.2797 58.2492C89.5153 57.639 89.7424 57.0254 89.9542 56.4102C90.0475 56.1407 90.1322 55.8695 90.2203 55.5983C90.4542 54.8763 90.6712 54.1526 90.8729 53.4271C90.9492 53.1509 91.0322 52.8746 91.1034 52.5966C91.2509 52.0271 91.3797 51.456 91.5051 50.8848L95.8034 55.1831C95.3644 57.7339 94.6983 60.278 93.8186 62.7882ZM85.8017 65.5509C86.3339 64.6254 86.8288 63.6865 87.3 62.7424C87.4 62.5407 87.4966 62.339 87.5932 62.1373C87.678 61.9627 87.7644 61.7882 87.8475 61.6136L92.4644 66.2305C91.7542 67.8492 90.9441 69.4407 90.0475 71.0051L85.3492 66.3068C85.4576 66.1254 85.5695 65.9458 85.6746 65.7627C85.7153 65.6915 85.761 65.6221 85.8017 65.5509ZM81.8186 71.5305C82.3966 70.7746 82.9492 70.0085 83.4814 69.2322L88.2085 73.9593C87.2644 75.3695 86.2525 76.7509 85.1492 78.0915L80.3848 73.3271C80.8424 72.778 81.2848 72.2204 81.717 71.6576C81.7509 71.6136 81.7864 71.5729 81.8186 71.5305ZM72.3898 89.3017L67.6492 84.561C69.0898 83.6373 70.4949 82.6424 71.8576 81.578L76.6356 86.3559C75.261 87.4119 73.8458 88.3966 72.3898 89.3017ZM59.8305 88.7254C61.4695 88.0221 63.0797 87.2305 64.6542 86.3593L69.339 91.0441C67.7322 91.8949 66.0881 92.6509 64.4186 93.3136L59.8305 88.7254ZM79.2627 84.1898L74.4746 79.4017C75.3186 78.6543 76.1509 77.8898 76.9525 77.0865C77.3542 76.6848 77.7373 76.2712 78.1254 75.861L82.9 80.6356C82.5119 81.0492 82.1525 81.478 81.7475 81.8814C80.9441 82.6831 80.1102 83.4458 79.2627 84.1898ZM90.5017 26.9746C92.6712 30.3 94.2068 33.9593 95.1898 37.7932L92.2915 34.8949C92.2576 34.6271 92.2119 34.3627 92.1729 34.0983C92.1085 33.6576 92.0458 33.217 91.9678 32.7797C91.8254 31.9831 91.661 31.1932 91.4746 30.4102C91.3898 30.0593 91.2932 29.7153 91.2 29.3661C91.039 28.7627 90.8644 28.1627 90.6763 27.5678C90.6119 27.3712 90.5678 27.1695 90.5017 26.9746ZM18.2271 18.3593C27.5881 8.99832 40.0187 3.62883 52.3288 3.62883C62.5729 3.62883 71.9559 7.3712 78.7509 14.1661C79.7017 15.117 80.5847 16.1119 81.4051 17.1441L81.8458 17.7271C81.8797 17.7712 81.9119 17.817 81.9458 17.861C82.6932 18.8526 83.3814 19.8746 84.0136 20.9254C84.0271 20.9492 84.0407 20.9729 84.0542 20.9966C84.6746 22.0339 85.239 23.1 85.7475 24.1882C85.7712 24.2373 85.7915 24.2898 85.8136 24.339C86.2949 25.3797 86.7237 26.4424 87.1034 27.5221C87.1356 27.617 87.1695 27.7102 87.2017 27.8051C87.5322 28.7712 87.8102 29.7543 88.061 30.7458C88.1187 30.9763 88.1848 31.2034 88.239 31.4356C88.4576 32.3695 88.6271 33.3153 88.7763 34.2661C88.8271 34.5949 88.8831 34.9221 88.9254 35.2543C89.0441 36.1593 89.1254 37.0712 89.1814 37.9882C89.2051 38.3627 89.2254 38.739 89.239 39.117C89.2712 40.0237 89.2729 40.9356 89.2458 41.8492C89.2339 42.2237 89.2153 42.5966 89.1949 42.9712C89.1424 43.9085 89.0661 44.8492 88.9525 45.7899C88.9136 46.1187 88.861 46.4475 88.8153 46.7763C88.6729 47.7729 88.5085 48.7678 88.2966 49.761C88.2475 49.9949 88.1848 50.2271 88.1322 50.4593C87.9034 51.4593 87.6475 52.456 87.3492 53.4492C87.3051 53.5983 87.2644 53.7492 87.2187 53.8983C86.878 54.9966 86.4898 56.0865 86.0661 57.1695C86.0034 57.3322 85.9458 57.4949 85.8797 57.6559C85.4424 58.7407 84.9593 59.8136 84.439 60.8763C84.3576 61.0424 84.2797 61.2085 84.1966 61.3729C83.6644 62.4322 83.0881 63.478 82.4746 64.5119C82.3814 64.6695 82.2864 64.8254 82.1915 64.9814C81.5593 66.017 80.8898 67.0373 80.1763 68.039C80.078 68.1763 79.9763 68.3119 79.8763 68.4492C79.1373 69.4644 78.3627 70.4627 77.5407 71.4356C77.4593 71.5322 77.3729 71.6254 77.2898 71.7221C76.422 72.7339 75.517 73.7254 74.5576 74.6848C73.9729 75.2695 73.3763 75.839 72.7678 76.3932C63.6475 84.6915 52.0085 89.4085 40.4746 89.4085C40.1102 89.4085 39.7542 89.378 39.3915 89.3678C38.6085 89.3475 37.8271 89.3238 37.0559 89.261C36.5644 89.2204 36.0831 89.1526 35.5983 89.0949C34.9186 89.0136 34.2407 88.9271 33.5712 88.8119C33.1119 88.7339 32.6576 88.6407 32.2051 88.5458C31.5034 88.3983 30.8102 88.2339 30.122 88.0492C29.7203 87.9424 29.3203 87.8356 28.9237 87.7153C28.1576 87.4831 27.4068 87.2187 26.6627 86.939C26.3576 86.8254 26.0475 86.7237 25.7475 86.6017C24.7186 86.1848 23.7102 85.7288 22.7305 85.2221C22.5542 85.1305 22.3881 85.0204 22.2136 84.9271C21.4339 84.5068 20.6678 84.0644 19.922 83.5882C19.5085 83.3221 19.1102 83.0322 18.7068 82.7492C17.0508 81.5899 15.4729 80.3187 14.0339 78.8797C-1.49661 63.3526 0.384746 36.2017 18.2271 18.3593ZM27.7525 90.8983C28.2136 91.0407 28.6797 91.1729 29.1475 91.3C29.8797 91.4983 30.6186 91.6729 31.3661 91.8305C31.5475 91.8695 31.7237 91.9238 31.9051 91.9593L34.2475 94.3017C31.639 93.3577 29.1644 92.1373 26.8695 90.6441C27.1576 90.7407 27.4593 90.8085 27.7525 90.8983ZM40.7373 96L37.4203 92.6831C38.0237 92.7237 38.6339 92.7373 39.2441 92.7543C39.6509 92.7644 40.0475 92.8102 40.4559 92.8102C41.8186 92.8102 43.1814 92.7339 44.5424 92.6136L48.517 96.5882C48.2254 96.5932 47.9356 96.6102 47.6458 96.6102C45.2881 96.6102 42.9831 96.3882 40.7373 96Z" fill="black"/>
<path d="M21.022 65.0678L31.2153 62.5797C31.2881 62.5627 31.3458 62.4865 31.3644 62.3848L31.7186 60.461C28.0831 57.5492 26.0119 53.5051 25.5508 48.417C23.7051 47.0763 22.8254 44.7882 23.3322 42.4356L23.8 40.2661C24.2 38.4136 25.4661 36.7712 27.1831 35.8221C27.8932 33.7644 28.8068 31.8627 29.9051 30.1627C30.383 29.4221 30.7712 28.8712 31.0881 28.4254C32.0441 27.0729 32.0441 27.0729 32.0153 24.9526C32.0034 24.1 32.0322 23.2305 32.0983 22.3678C32.1881 21.2288 33.1678 20.339 34.3305 20.339C35.0203 20.339 35.6593 20.6729 36.039 21.2339C36.2644 21.5661 36.7458 22.1051 37.7576 22.7899C39.6288 24.0543 42.4881 24.6187 45.7322 24.4034C46.2288 24.3695 46.7407 24.3526 47.261 24.3526C62.9966 24.3678 67.1542 31.9678 67.7407 38.7305C70.0186 40.2424 71.2627 42.5932 71.0271 45.0593L70.7559 47.8966C70.4695 50.9051 68.0458 53.3407 64.7305 54.0729C61.961 59.7051 57.5356 63.356 51.8424 64.7119L51.5441 66.8492C51.5169 67.039 51.6288 67.3543 51.9373 67.5916L65.361 77.9509C67.7627 76.2916 70.0441 74.4017 72.1576 72.2882C80.1136 64.3322 84.9492 54.1763 85.7746 43.6882C86.6068 33.1017 83.261 23.4661 76.3525 16.5593C70.1983 10.4068 61.6661 7.01697 52.3288 7.01697C40.9119 7.01697 29.3559 12.0254 20.6254 20.756C12.6678 28.7119 7.8322 38.8678 7.00847 49.356C6.17627 59.9424 8.21356 65.9729 15.1237 72.8814C15.9186 69.2932 17.8169 66.0068 21.022 65.0678Z" fill="black"/>
</svg>
